<svg xmlns="http://www.w3.org/2000/svg" xmlns:xlink="http://www.w3.org/1999/xlink" width="500" zoomAndPan="magnify" viewBox="0 0 375 149.999998" height="200" preserveAspectRatio="xMidYMid meet" version="1.0"><defs><g/></defs><g fill="#007878" fill-opacity="1"><g transform="translate(-2.257996, 123.400855)"><g><path d="M 76.296875 -113.265625 L 87.625 -98.21875 L 85.09375 -15.203125 L 73.46875 -1.484375 L 2.984375 0.15625 L 3.875 -119.21875 Z M 34.421875 -90.3125 L 35.625 -24.140625 L 56.328125 -28.765625 L 57.375 -83.75 Z M 34.421875 -90.3125 "/></g></g></g><g fill="#007878" fill-opacity="1"><g transform="translate(88.380989, 105.713862)"><g><path d="M 24.90625 -11.421875 L 36.578125 -10.65625 L 37.21875 -6.0625 L 33.90625 -0.453125 L 5.8125 -0.0625 L 1.59375 -2.546875 L 1.28125 -33.265625 L 5.234375 -37.40625 L 32.875 -36.84375 L 37.671875 -33.578125 L 36.515625 -16.03125 L 32.75 -13.46875 L 14.9375 -13.984375 L 14.75 -9.703125 L 23.8125 -9.125 Z M 24.0625 -20.5 L 23.6875 -26.9375 L 14.5 -27.328125 L 14.5625 -21.328125 Z M 24.0625 -20.5 "/></g></g></g><g fill="#007878" fill-opacity="1"><g transform="translate(126.045129, 105.713862)"><g><path d="M 34.09375 -21.96875 L 36.90625 -16.40625 L 36.390625 -3 L 32.75 -0.3125 L 32.375 -0.3125 L 3.953125 0 L 1.28125 -2.9375 L 2.171875 -13.40625 L 12.828125 -13.34375 L 13.71875 -10.09375 L 24 -10.09375 L 24.265625 -14.875 L 4.65625 -16.53125 L 1.65625 -18.96875 L 1.984375 -34.21875 L 4.59375 -36.515625 L 31.34375 -37.34375 L 36.015625 -35.6875 L 36.578125 -26.75 L 34.15625 -24.96875 L 25.34375 -24.640625 L 23.875 -28.15625 L 15.0625 -27.765625 L 14.359375 -23.5625 Z M 34.09375 -21.96875 "/></g></g></g><g fill="#007878" fill-opacity="1"><g transform="translate(163.581714, 105.713862)"><g><path d="M 37.34375 -34.734375 L 37.796875 0 L 29.046875 0.0625 L 27.703125 -2.171875 L 26.234375 0 L 6.0625 -0.1875 L 1.28125 -3.703125 L 2.421875 -20.296875 L 6.125 -22.859375 L 24 -23.171875 L 24.203125 -27.515625 L 15.125 -28.15625 L 14.046875 -25.796875 L 2.359375 -26.5625 L 1.71875 -31.15625 L 5.046875 -36.78125 L 33.140625 -37.15625 Z M 24.453125 -9.953125 L 24.390625 -15.828125 L 14.875 -15.703125 L 15.265625 -10.34375 Z M 24.453125 -9.953125 "/></g></g></g><g fill="#007878" fill-opacity="1"><g transform="translate(202.012049, 105.713862)"><g><path d="M 37.40625 -34.796875 L 37.546875 -3.3125 L 34.796875 -0.125 L 15 -0.390625 L 14.625 14.421875 L 1.28125 16.40625 L 1.65625 -36.703125 L 9.828125 -36.90625 L 10.921875 -34.921875 L 12.515625 -36.703125 L 34.859375 -37.28125 Z M 15.640625 -26.234375 L 15.390625 -10.09375 L 24.0625 -10.796875 L 24.0625 -25.40625 Z M 15.640625 -26.234375 "/></g></g></g><g fill="#007878" fill-opacity="1"><g transform="translate(240.825528, 105.713862)"><g><path d="M 24.90625 -11.421875 L 36.578125 -10.65625 L 37.21875 -6.0625 L 33.90625 -0.453125 L 5.8125 -0.0625 L 1.59375 -2.546875 L 1.28125 -33.265625 L 5.234375 -37.40625 L 32.875 -36.84375 L 37.671875 -33.578125 L 36.515625 -16.03125 L 32.75 -13.46875 L 14.9375 -13.984375 L 14.75 -9.703125 L 23.8125 -9.125 Z M 24.0625 -20.5 L 23.6875 -26.9375 L 14.5 -27.328125 L 14.5625 -21.328125 Z M 24.0625 -20.5 "/></g></g></g><g fill="#007878" fill-opacity="1"><g transform="translate(279.128172, 105.713862)"><g><path d="M 29.4375 -37.40625 L 37.546875 -37.609375 L 37.28125 12.765625 L 33.203125 16.28125 L 4.984375 15.703125 L 1.84375 10.796875 L 2.296875 4.40625 L 3.703125 2.046875 L 14.109375 1.84375 L 15.390625 6.0625 L 24.140625 5.359375 L 23.9375 -0.953125 L 5.8125 -0.0625 L 2.171875 -3.640625 L 1.28125 -31.984375 L 5.8125 -37.34375 L 26.5625 -37.21875 L 27.96875 -35.3125 Z M 14.421875 -25.859375 L 14.75 -11.5625 L 23.75 -12 L 23.875 -26.4375 Z M 14.421875 -25.859375 "/></g></g></g><g fill="#007878" fill-opacity="1"><g transform="translate(317.303146, 105.713862)"><g><path d="M 37.34375 -34.734375 L 37.796875 0 L 29.046875 0.0625 L 27.703125 -2.171875 L 26.234375 0 L 6.0625 -0.1875 L 1.28125 -3.703125 L 2.421875 -20.296875 L 6.125 -22.859375 L 24 -23.171875 L 24.203125 -27.515625 L 15.125 -28.15625 L 14.046875 -25.796875 L 2.359375 -26.5625 L 1.71875 -31.15625 L 5.046875 -36.78125 L 33.140625 -37.15625 Z M 24.453125 -9.953125 L 24.390625 -15.828125 L 14.875 -15.703125 L 15.265625 -10.34375 Z M 24.453125 -9.953125 "/></g></g></g><g fill="#007878" fill-opacity="1"><g transform="translate(355.733482, 105.713862)"><g><path d="M 1.28125 -0.125 L 1.59375 -37.34375 L 15.453125 -37.34375 L 13.71875 -0.765625 Z M 18.703125 -47.875 L 10.28125 -39.640625 L 6.25 -42.78125 L 12.828125 -52.921875 Z M 18.703125 -47.875 "/></g></g></g></svg>